<svg width="19" height="9" viewBox="0 0 19 9" fill="none" xmlns="http://www.w3.org/2000/svg">
<path d="M3.88594 1.00816V8.19698H2.36604V2.45084H2.32391L0.677644 3.48283V2.13492L2.4573 1.00816H3.88594ZM8.41318 8.35494C7.80943 8.3526 7.28992 8.204 6.85466 7.90915C6.42174 7.6143 6.08828 7.18722 5.85427 6.62794C5.62259 6.06865 5.50793 5.39587 5.51027 4.60959C5.51027 3.82565 5.6261 3.15755 5.85778 2.60528C6.09179 2.05302 6.42525 1.63297 6.85817 1.34513C7.29343 1.05496 7.81177 0.909873 8.41318 0.909873C9.01459 0.909873 9.53175 1.05496 9.96467 1.34513C10.3999 1.63531 10.7346 2.05653 10.9686 2.60879C11.2026 3.15872 11.3184 3.82565 11.3161 4.60959C11.3161 5.39821 11.1991 6.07216 10.9651 6.63145C10.7334 7.19073 10.4011 7.61781 9.96818 7.91266C9.53526 8.20751 9.01693 8.35494 8.41318 8.35494ZM8.41318 7.09479C8.82504 7.09479 9.15382 6.88769 9.39954 6.47349C9.64525 6.05929 9.76693 5.43799 9.76459 4.60959C9.76459 4.06434 9.70843 3.61036 9.59611 3.24765C9.48612 2.88493 9.32933 2.6123 9.12574 2.42978C8.92449 2.24725 8.68697 2.15598 8.41318 2.15598C8.00366 2.15598 7.67604 2.36074 7.43033 2.77026C7.18462 3.17978 7.06059 3.79289 7.05825 4.60959C7.05825 5.16186 7.11325 5.62286 7.22323 5.9926C7.33556 6.35999 7.49351 6.63613 7.6971 6.821C7.90069 7.00353 8.13938 7.09479 8.41318 7.09479ZM15.2185 8.35494C14.6148 8.3526 14.0953 8.204 13.66 7.90915C13.2271 7.6143 12.8936 7.18722 12.6596 6.62794C12.4279 6.06865 12.3133 5.39587 12.3156 4.60959C12.3156 3.82565 12.4314 3.15755 12.6631 2.60528C12.8971 2.05302 13.2306 1.63297 13.6635 1.34513C14.0988 1.05496 14.6171 0.909873 15.2185 0.909873C15.8199 0.909873 16.3371 1.05496 16.77 1.34513C17.2053 1.63531 17.5399 2.05653 17.7739 2.60879C18.0079 3.15872 18.1238 3.82565 18.1214 4.60959C18.1214 5.39821 18.0044 6.07216 17.7704 6.63145C17.5387 7.19073 17.2064 7.61781 16.7735 7.91266C16.3406 8.20751 15.8223 8.35494 15.2185 8.35494ZM15.2185 7.09479C15.6304 7.09479 15.9592 6.88769 16.2049 6.47349C16.4506 6.05929 16.5723 5.43799 16.5699 4.60959C16.5699 4.06434 16.5138 3.61036 16.4014 3.24765C16.2915 2.88493 16.1347 2.6123 15.9311 2.42978C15.7298 2.24725 15.4923 2.15598 15.2185 2.15598C14.809 2.15598 14.4814 2.36074 14.2357 2.77026C13.99 3.17978 13.8659 3.79289 13.8636 4.60959C13.8636 5.16186 13.9186 5.62286 14.0286 5.9926C14.1409 6.35999 14.2989 6.63613 14.5024 6.821C14.706 7.00353 14.9447 7.09479 15.2185 7.09479Z" fill="#F0C932"/>
</svg>
