<svg width="30" height="10" viewBox="0 0 30 10" fill="none" xmlns="http://www.w3.org/2000/svg">
<path d="M0.809658 6.93326V5.73629L3.81085 1.0081H4.84284V2.6649H4.23207L2.34009 5.65907V5.71523H6.60495V6.93326H0.809658ZM4.26015 8.19692V6.5682L4.28823 6.03817V1.0081H5.71336V8.19692H4.26015ZM9.12174 7.21408L9.08313 7.60019C9.0527 7.90909 8.9942 8.21681 8.90762 8.52337C8.82337 8.83226 8.73445 9.11191 8.64084 9.3623C8.54958 9.61269 8.47587 9.80926 8.4197 9.95201H7.4509C7.486 9.81394 7.53397 9.62088 7.59481 9.37283C7.65566 9.12712 7.71299 8.85098 7.76681 8.54443C7.82063 8.23787 7.85457 7.92547 7.86861 7.60721L7.88616 7.21408H9.12174ZM13.004 8.35488C12.4002 8.35254 11.8807 8.20394 11.4455 7.90909C11.0125 7.61423 10.6791 7.18716 10.4451 6.62788C10.2134 6.06859 10.0987 5.39581 10.1011 4.60953C10.1011 3.82559 10.2169 3.15749 10.4486 2.60522C10.6826 2.05296 11.0161 1.63291 11.449 1.34507C11.8842 1.0549 12.4026 0.909812 13.004 0.909812C13.6054 0.909812 14.1226 1.0549 14.5555 1.34507C14.9907 1.63525 15.3254 2.05647 15.5594 2.60873C15.7934 3.15866 15.9092 3.82559 15.9069 4.60953C15.9069 5.39815 15.7899 6.0721 15.5559 6.63139C15.3242 7.19067 14.9919 7.61774 14.559 7.9126C14.1261 8.20745 13.6077 8.35488 13.004 8.35488ZM13.004 7.09473C13.4158 7.09473 13.7446 6.88763 13.9903 6.47343C14.2361 6.05923 14.3577 5.43793 14.3554 4.60953C14.3554 4.06428 14.2992 3.6103 14.1869 3.24758C14.0769 2.88487 13.9201 2.61224 13.7165 2.42971C13.5153 2.24719 13.2778 2.15592 13.004 2.15592C12.5945 2.15592 12.2668 2.36068 12.0211 2.7702C11.7754 3.17972 11.6514 3.79283 11.6491 4.60953C11.6491 5.1618 11.7041 5.6228 11.814 5.99254C11.9264 6.35993 12.0843 6.63607 12.2879 6.82094C12.4915 7.00346 12.7302 7.09473 13.004 7.09473ZM19.8093 8.35488C19.2056 8.35254 18.6861 8.20394 18.2508 7.90909C17.8179 7.61423 17.4844 7.18716 17.2504 6.62788C17.0187 6.06859 16.9041 5.39581 16.9064 4.60953C16.9064 3.82559 17.0222 3.15749 17.2539 2.60522C17.4879 2.05296 17.8214 1.63291 18.2543 1.34507C18.6896 1.0549 19.2079 0.909812 19.8093 0.909812C20.4107 0.909812 20.9279 1.0549 21.3608 1.34507C21.7961 1.63525 22.1307 2.05647 22.3647 2.60873C22.5987 3.15866 22.7146 3.82559 22.7122 4.60953C22.7122 5.39815 22.5952 6.0721 22.3612 6.63139C22.1295 7.19067 21.7972 7.61774 21.3643 7.9126C20.9314 8.20745 20.4131 8.35488 19.8093 8.35488ZM19.8093 7.09473C20.2212 7.09473 20.55 6.88763 20.7957 6.47343C21.0414 6.05923 21.1631 5.43793 21.1607 4.60953C21.1607 4.06428 21.1046 3.6103 20.9923 3.24758C20.8823 2.88487 20.7255 2.61224 20.5219 2.42971C20.3206 2.24719 20.0831 2.15592 19.8093 2.15592C19.3998 2.15592 19.0722 2.36068 18.8265 2.7702C18.5808 3.17972 18.4567 3.79283 18.4544 4.60953C18.4544 5.1618 18.5094 5.6228 18.6194 5.99254C18.7317 6.35993 18.8897 6.63607 19.0932 6.82094C19.2968 7.00346 19.5355 7.09473 19.8093 7.09473ZM26.6147 8.35488C26.0109 8.35254 25.4914 8.20394 25.0561 7.90909C24.6232 7.61423 24.2898 7.18716 24.0557 6.62788C23.8241 6.06859 23.7094 5.39581 23.7118 4.60953C23.7118 3.82559 23.8276 3.15749 24.0593 2.60522C24.2933 2.05296 24.6267 1.63291 25.0597 1.34507C25.4949 1.0549 26.0133 0.909812 26.6147 0.909812C27.2161 0.909812 27.7332 1.0549 28.1662 1.34507C28.6014 1.63525 28.9361 2.05647 29.1701 2.60873C29.4041 3.15866 29.5199 3.82559 29.5176 4.60953C29.5176 5.39815 29.4006 6.0721 29.1666 6.63139C28.9349 7.19067 28.6026 7.61774 28.1697 7.9126C27.7367 8.20745 27.2184 8.35488 26.6147 8.35488ZM26.6147 7.09473C27.0265 7.09473 27.3553 6.88763 27.601 6.47343C27.8467 6.05923 27.9684 5.43793 27.9661 4.60953C27.9661 4.06428 27.9099 3.6103 27.7976 3.24758C27.6876 2.88487 27.5308 2.61224 27.3272 2.42971C27.126 2.24719 26.8885 2.15592 26.6147 2.15592C26.2051 2.15592 25.8775 2.36068 25.6318 2.7702C25.3861 3.17972 25.2621 3.79283 25.2597 4.60953C25.2597 5.1618 25.3147 5.6228 25.4247 5.99254C25.537 6.35993 25.695 6.63607 25.8986 6.82094C26.1022 7.00346 26.3409 7.09473 26.6147 7.09473Z" fill="#F0C932"/>
</svg>
