<svg width="29" height="10" viewBox="0 0 29 10" fill="none" xmlns="http://www.w3.org/2000/svg">
<path d="M3.48177 8.29527C3.11203 8.29293 2.75516 8.23091 2.41117 8.10923C2.06951 7.98754 1.76296 7.7898 1.4915 7.51601C1.22005 7.24222 1.00476 6.8795 0.845631 6.42786C0.688844 5.97622 0.61045 5.42161 0.61045 4.76404C0.61279 4.16029 0.681823 3.62089 0.81755 3.14585C0.955616 2.66847 1.15219 2.26363 1.40726 1.93133C1.66467 1.59904 1.9724 1.3463 2.33043 1.17314C2.68847 0.997627 3.0898 0.909873 3.53442 0.909873C4.01414 0.909873 4.4377 1.00348 4.8051 1.19069C5.1725 1.37556 5.46735 1.62712 5.68966 1.94537C5.91431 2.26363 6.05004 2.6205 6.09684 3.01597H4.598C4.5395 2.76558 4.41664 2.56901 4.22943 2.42627C4.04222 2.28352 3.81055 2.21215 3.53442 2.21215C3.0664 2.21215 2.7107 2.41574 2.46733 2.82291C2.2263 3.23009 2.10344 3.78353 2.09876 4.48322H2.1479C2.25555 4.27027 2.40064 4.08892 2.58316 3.93915C2.76803 3.78704 2.97747 3.67121 3.21148 3.59164C3.44784 3.50974 3.69706 3.46879 3.95915 3.46879C4.38505 3.46879 4.76415 3.56941 5.09645 3.77066C5.42874 3.96957 5.69083 4.24336 5.88272 4.59204C6.07461 4.94072 6.17056 5.33971 6.17056 5.78901C6.17056 6.27575 6.05706 6.70867 5.83007 7.08777C5.60542 7.46687 5.29067 7.76406 4.88584 7.97935C4.48334 8.1923 4.01531 8.29761 3.48177 8.29527ZM3.47475 7.10181C3.70876 7.10181 3.9182 7.04565 4.10307 6.93332C4.28794 6.821 4.43302 6.66889 4.53833 6.477C4.64363 6.28511 4.69629 6.06982 4.69629 5.83113C4.69629 5.59244 4.64363 5.37832 4.53833 5.18877C4.43536 4.99922 4.29262 4.84828 4.11009 4.73596C3.92756 4.62363 3.71929 4.56747 3.48528 4.56747C3.30977 4.56747 3.14713 4.60023 2.99736 4.66575C2.84994 4.73128 2.72006 4.82254 2.60774 4.93955C2.49775 5.05655 2.41117 5.19228 2.34798 5.34673C2.2848 5.49883 2.25321 5.66147 2.25321 5.83464C2.25321 6.06631 2.30586 6.27809 2.41117 6.46998C2.51881 6.66187 2.6639 6.81515 2.84643 6.92981C3.0313 7.04448 3.24074 7.10181 3.47475 7.10181ZM8.58819 7.21414L8.54957 7.60025C8.51915 7.90915 8.46065 8.21687 8.37407 8.52343C8.28982 8.83232 8.2009 9.11197 8.10729 9.36236C8.01603 9.61275 7.94231 9.80932 7.88615 9.95207H6.91735C6.95245 9.814 7.00042 9.62094 7.06126 9.37289C7.1221 9.12718 7.17944 8.85104 7.23326 8.54449C7.28708 8.23794 7.32101 7.92553 7.33506 7.60727L7.35261 7.21414H8.58819ZM12.4704 8.35494C11.8667 8.3526 11.3472 8.204 10.9119 7.90915C10.479 7.6143 10.1455 7.18722 9.91152 6.62794C9.67985 6.06865 9.56518 5.39587 9.56752 4.60959C9.56752 3.82565 9.68336 3.15755 9.91503 2.60528C10.149 2.05302 10.4825 1.63297 10.9154 1.34513C11.3507 1.05496 11.869 0.909873 12.4704 0.909873C13.0718 0.909873 13.589 1.05496 14.0219 1.34513C14.4572 1.63531 14.7918 2.05653 15.0258 2.60879C15.2598 3.15872 15.3757 3.82565 15.3733 4.60959C15.3733 5.39821 15.2563 6.07216 15.0223 6.63145C14.7907 7.19073 14.4584 7.61781 14.0254 7.91266C13.5925 8.20751 13.0742 8.35494 12.4704 8.35494ZM12.4704 7.09479C12.8823 7.09479 13.2111 6.88769 13.4568 6.47349C13.7025 6.05929 13.8242 5.43799 13.8218 4.60959C13.8218 4.06434 13.7657 3.61036 13.6534 3.24765C13.5434 2.88493 13.3866 2.6123 13.183 2.42978C12.9817 2.24725 12.7442 2.15598 12.4704 2.15598C12.0609 2.15598 11.7333 2.36074 11.4876 2.77026C11.2419 3.17978 11.1178 3.79289 11.1155 4.60959C11.1155 5.16186 11.1705 5.62286 11.2805 5.9926C11.3928 6.35999 11.5508 6.63613 11.7544 6.821C11.9579 7.00353 12.1966 7.09479 12.4704 7.09479ZM19.2758 8.35494C18.672 8.3526 18.1525 8.204 17.7173 7.90915C17.2843 7.6143 16.9509 7.18722 16.7169 6.62794C16.4852 6.06865 16.3705 5.39587 16.3729 4.60959C16.3729 3.82565 16.4887 3.15755 16.7204 2.60528C16.9544 2.05302 17.2878 1.63297 17.7208 1.34513C18.156 1.05496 18.6744 0.909873 19.2758 0.909873C19.8772 0.909873 20.3943 1.05496 20.8273 1.34513C21.2625 1.63531 21.5972 2.05653 21.8312 2.60879C22.0652 3.15872 22.181 3.82565 22.1787 4.60959C22.1787 5.39821 22.0617 6.07216 21.8277 6.63145C21.596 7.19073 21.2637 7.61781 20.8308 7.91266C20.3979 8.20751 19.8795 8.35494 19.2758 8.35494ZM19.2758 7.09479C19.6876 7.09479 20.0164 6.88769 20.2621 6.47349C20.5078 6.05929 20.6295 5.43799 20.6272 4.60959C20.6272 4.06434 20.571 3.61036 20.4587 3.24765C20.3487 2.88493 20.1919 2.6123 19.9883 2.42978C19.7871 2.24725 19.5496 2.15598 19.2758 2.15598C18.8663 2.15598 18.5386 2.36074 18.2929 2.77026C18.0472 3.17978 17.9232 3.79289 17.9208 4.60959C17.9208 5.16186 17.9758 5.62286 18.0858 5.9926C18.1981 6.35999 18.3561 6.63613 18.5597 6.821C18.7633 7.00353 19.002 7.09479 19.2758 7.09479ZM26.0811 8.35494C25.4774 8.3526 24.9579 8.204 24.5226 7.90915C24.0897 7.6143 23.7562 7.18722 23.5222 6.62794C23.2905 6.06865 23.1759 5.39587 23.1782 4.60959C23.1782 3.82565 23.294 3.15755 23.5257 2.60528C23.7597 2.05302 24.0932 1.63297 24.5261 1.34513C24.9614 1.05496 25.4797 0.909873 26.0811 0.909873C26.6825 0.909873 27.1997 1.05496 27.6326 1.34513C28.0679 1.63531 28.4025 2.05653 28.6365 2.60879C28.8705 3.15872 28.9864 3.82565 28.984 4.60959C28.984 5.39821 28.867 6.07216 28.633 6.63145C28.4013 7.19073 28.069 7.61781 27.6361 7.91266C27.2032 8.20751 26.6849 8.35494 26.0811 8.35494ZM26.0811 7.09479C26.493 7.09479 26.8218 6.88769 27.0675 6.47349C27.3132 6.05929 27.4349 5.43799 27.4325 4.60959C27.4325 4.06434 27.3764 3.61036 27.264 3.24765C27.1541 2.88493 26.9973 2.6123 26.7937 2.42978C26.5924 2.24725 26.3549 2.15598 26.0811 2.15598C25.6716 2.15598 25.344 2.36074 25.0983 2.77026C24.8526 3.17978 24.7285 3.79289 24.7262 4.60959C24.7262 5.16186 24.7812 5.62286 24.8912 5.9926C25.0035 6.35999 25.1614 6.63613 25.365 6.821C25.5686 7.00353 25.8073 7.09479 26.0811 7.09479Z" fill="#F0C932"/>
</svg>
