

<svg width="10" height="11" viewBox="0 0 10 11" fill="none" xmlns="http://www.w3.org/2000/svg">
<path d="M5.11403 2.66637L5.43803 3.42419C5.45999 3.49009 5.5204 3.52853 5.58081 3.53402L6.40453 3.6109C6.58025 3.62737 6.64615 3.84154 6.51985 3.95686L5.89931 4.50052C5.84989 4.54445 5.82792 4.61035 5.8444 4.67075L6.02561 5.478C6.06405 5.64823 5.88284 5.78003 5.72908 5.69216L5.02068 5.26932C4.96576 5.23637 4.89437 5.23637 4.83946 5.26932L4.13106 5.69216C3.98279 5.78003 3.79608 5.64823 3.83452 5.478L4.01574 4.67075C4.03221 4.61035 4.01025 4.54445 3.96082 4.50052L3.34029 3.95686C3.20849 3.84154 3.27988 3.62737 3.45561 3.6109L4.27933 3.53402C4.34523 3.52853 4.40014 3.49009 4.4276 3.42968L4.7516 2.67186C4.81749 2.50712 5.04264 2.50712 5.11403 2.66637Z" stroke="#F0C932" stroke-width="0.549146" stroke-miterlimit="10" stroke-linecap="round" stroke-linejoin="round"/>
<path d="M8.66552 4.27243C8.67972 2.21009 7.01937 0.52673 4.95703 0.512537C2.89469 0.498344 1.21132 2.1587 1.19713 4.22103C1.18294 6.28337 2.84329 7.96674 4.90563 7.98093C6.96797 7.99512 8.65133 6.33477 8.66552 4.27243Z" stroke="#F0C932" stroke-width="0.549146" stroke-miterlimit="10" stroke-linecap="round" stroke-linejoin="round"/>
<path d="M4.42208 7.94366L3.49402 10.2775L2.31885 8.93212L0.545105 9.09687L1.72028 6.15344" stroke="#F0C932" stroke-width="0.549146" stroke-miterlimit="10" stroke-linecap="round" stroke-linejoin="round"/>
<path d="M5.43254 7.94366L6.36609 10.2775L7.53577 8.93212L9.31501 9.09687L8.13434 6.15344" stroke="#F0C932" stroke-width="0.549146" stroke-miterlimit="10" stroke-linecap="round" stroke-linejoin="round"/>
</svg>
